<svg xmlns="http://www.w3.org/2000/svg"><symbol viewBox="0 0 200 60" id="icon-cloudstrap-logo-text"><title>cloudstrap-logo-text</title><path d="M87.15 39.56l-.317-2.35c-.997 1.518-2.7 2.688-5.093 2.688-4.486 0-6.763-3.54-6.763-9.47 0-5.652 2.887-9.806 7.44-9.806 1.595 0 2.994.622 4.058 1.69v-9.13l5.41.677v25.7H87.15zm-.676-13.526c-.797-.965-1.568-1.61-2.698-1.61-1.894 0-3.39 1.904-3.39 6.006 0 4.55 1.363 5.506 3.09 5.506 1.23 0 2.167-.78 2.998-2.125v-7.776zm-19.276 10.82c-1.296 1.93-3.084 3.044-5.41 3.044-3.29 0-5.073-2.198-5.073-5.75V20.963h5.41v12.512c0 1.86.48 2.428 1.577 2.428s2.056-.71 2.82-2.09v-12.85h5.41V39.56H67.2v-2.705zM45.218 39.9c-5.35 0-8.7-3.55-8.7-9.72 0-5.86 3.316-9.556 8.7-9.556s8.58 3.42 8.58 9.59c0 5.86-3.197 9.685-8.58 9.685zm-.06-15.442c-2.128 0-3.19 1.758-3.19 5.722 0 4.067 1.062 5.757 3.19 5.757 2.126 0 3.19-1.758 3.19-5.722 0-4.068-1.064-5.757-3.19-5.757zm-12.452 15.44c-3.057 0-4.734-1.728-4.734-5.07V13.86l5.088-.674-.016 21.302c0 .76.282 1.138.913 1.138.366 0 .63-.07.864-.172l1.03 3.86c-.796.345-1.882.585-3.144.585zm-12.64-4.272c1.262 0 2.247-.31 3.51-1.138l2.028 3.382c-1.628 1.344-3.323 2.03-5.75 2.03-5.416 0-8.79-3.68-8.79-9.47 0-5.826 3.507-9.807 8.79-9.807 2.46 0 4.055.547 5.75 2.03l-2.03 3.38c-1.13-.895-2.184-1.352-3.38-1.352-2.26 0-3.72 1.648-3.72 5.75 0 4.067 1.497 5.196 3.59 5.196z" fill="#39393B"/><path d="M164.927 39.9c-1.728 0-2.952-.585-4.048-1.895v8.41l-5.42.585V20.962h4.733l.32 2.118c1.462-1.896 3.462-2.456 5.09-2.456 4.652 0 6.763 3.54 6.763 9.47 0 5.65-3.086 9.805-7.44 9.805zm-1.09-15.442c-1.13 0-2.194.793-2.958 2.137v7.72c.73 1.104 1.594 1.62 2.69 1.62 1.96 0 3.386-1.742 3.386-5.843 0-4.55-1.292-5.634-3.12-5.634zm-16.552 12.754c-1.263 2-3.26 2.687-5.353 2.687-3.522 0-5.713-2.343-5.713-5.687 0-4 2.73-6.15 8.08-6.15h2.028v-.676c0-2.172-.87-2.963-3.03-2.963-1.13 0-2.86.345-4.62.965l-1.196-3.586c2.227-.862 4.485-1.18 6.48-1.18 5.116 0 7.44 2.185 7.44 6.425v7.1c0 1.413.403 1.82 1.234 2.13L151.4 39.9c-2.06-.172-3.284-.894-4.115-2.686zm-.957-6.106h-1.353c-2.392 0-3.72.878-3.72 2.705 0 1.45.945 2.23 2.24 2.23 1.197 0 2.2-.822 2.832-1.89v-3.044zm-12.85-5.41c-2.16 0-2.817 1.977-3.382 4.734v9.13h-5.41V20.962h4.733l.35 3.6c.797-2.516 2.694-3.938 4.72-3.938.665 0 1.127.166 1.692.338l-1.014 5.072c-.564-.138-1.092-.338-1.69-.338zm-14.142 9.93c.598 0 1.196-.172 1.894-.62l1.76 3.48c-1.328.965-3.134 1.41-4.73 1.41-3.887-.034-5.748-2.115-5.748-6.424v-8.454h-2.705V20.96h2.705v-3.72l5.072-.676v4.396h4.396l-1.014 4.058h-3.382v8.454c0 1.76.655 2.154 1.752 2.154zm-15.554-7.55c3.49 1.035 5.45 2.552 5.45 5.827 0 3.792-3.493 5.996-7.88 5.996-3.057 0-5.612-1.068-7.34-2.688l2.56-2.965c1.328 1.07 2.957 1.793 4.685 1.793 1.595 0 2.56-.62 2.56-1.724 0-1.24-.533-1.62-3.723-2.55-3.49-1.035-5.217-2.896-5.217-5.723 0-3.137 2.7-5.42 7.152-5.42 2.558 0 4.91.698 6.537 2.076l-1.927 3.067c-1.362-.896-2.825-1.414-4.353-1.414-1.43 0-2.127.552-2.127 1.38 0 .965.466 1.38 3.622 2.344z" fill="#FF6860"/><path d="M185.217 40.237c-2.455 0-3.72-1.688-3.72-4.396 0-2.56 1.25-4.057 3.72-4.057 2.455 0 3.72 1.35 3.72 4.058 0 2.56-1.25 4.397-3.72 4.397zm0-6.763c-.848 0-1.353.76-1.353 2.367 0 1.668.505 2.368 1.353 2.368s1.353-.76 1.353-2.367c0-1.65-.505-2.366-1.353-2.366zm-8.116-1.69h2.706v8.453H177.1v-8.454zm1.354-1.354c-.893 0-1.353-.534-1.353-1.353s.46-1.353 1.354-1.353c.893 0 1.353.534 1.353 1.353s-.46 1.353-1.353 1.353zm-4.396 9.807c-.893 0-1.353-.534-1.353-1.353s.46-1.353 1.353-1.353 1.353.535 1.353 1.354-.46 1.353-1.352 1.353z" fill="#39393B"/></symbol><symbol viewBox="0 0 200 200" id="icon-cloudstrap-logo"><title>cloudstrap-logo</title><path d="M87.15 182.56l-.317-2.35c-.997 1.518-2.7 2.688-5.093 2.688-4.486 0-6.763-3.54-6.763-9.47 0-5.652 2.887-9.806 7.44-9.806 1.595 0 2.994.622 4.058 1.69v-9.13l5.41.677v25.7H87.15zm-.676-13.526c-.797-.965-1.568-1.61-2.698-1.61-1.894 0-3.39 1.904-3.39 6.006 0 4.55 1.363 5.506 3.09 5.506 1.23 0 2.167-.78 2.998-2.125v-7.776zm-19.276 10.82c-1.296 1.93-3.084 3.044-5.41 3.044-3.29 0-5.073-2.198-5.073-5.75v-13.187h5.41v12.513c0 1.86.48 2.428 1.577 2.428s2.056-.71 2.82-2.09v-12.85h5.41v18.6H67.2v-2.705zm-21.98 3.045c-5.35 0-8.7-3.55-8.7-9.72 0-5.86 3.316-9.556 8.7-9.556s8.58 3.42 8.58 9.59c0 5.86-3.197 9.685-8.58 9.685zm-.06-15.442c-2.128 0-3.19 1.758-3.19 5.722 0 4.067 1.062 5.757 3.19 5.757 2.126 0 3.19-1.758 3.19-5.722 0-4.068-1.064-5.757-3.19-5.757zm-12.452 15.44c-3.057 0-4.734-1.728-4.734-5.07V156.86l5.088-.674-.016 21.302c0 .76.282 1.138.913 1.138.366 0 .63-.07.864-.172l1.03 3.86c-.796.345-1.882.585-3.144.585zm-12.64-4.272c1.262 0 2.247-.31 3.51-1.138l2.028 3.382c-1.628 1.344-3.323 2.03-5.75 2.03-5.416 0-8.79-3.68-8.79-9.47 0-5.826 3.507-9.807 8.79-9.807 2.46 0 4.055.547 5.75 2.03l-2.03 3.38c-1.13-.895-2.184-1.352-3.38-1.352-2.26 0-3.72 1.648-3.72 5.75 0 4.067 1.497 5.196 3.59 5.196z" fill="#39393B"/><path d="M164.927 182.9c-1.728 0-2.952-.585-4.048-1.895v8.41l-5.42.586v-26.037h4.733l.32 2.118c1.462-1.895 3.462-2.455 5.09-2.455 4.652 0 6.763 3.54 6.763 9.47 0 5.65-3.086 9.804-7.44 9.804zm-1.09-15.442c-1.13 0-2.194.793-2.958 2.137v7.72c.73 1.104 1.594 1.62 2.69 1.62 1.96 0 3.386-1.742 3.386-5.843 0-4.55-1.292-5.634-3.12-5.634zm-16.552 12.754c-1.263 2-3.26 2.687-5.353 2.687-3.522 0-5.713-2.343-5.713-5.687 0-4 2.73-6.15 8.08-6.15h2.028v-.676c0-2.172-.87-2.963-3.03-2.963-1.13 0-2.86.345-4.62.965l-1.196-3.586c2.227-.862 4.485-1.18 6.48-1.18 5.116 0 7.44 2.185 7.44 6.425v7.1c0 1.413.403 1.82 1.234 2.13L151.4 182.9c-2.06-.172-3.284-.894-4.115-2.686zm-.957-6.106h-1.353c-2.392 0-3.72.878-3.72 2.705 0 1.45.945 2.23 2.24 2.23 1.197 0 2.2-.822 2.832-1.89v-3.044zm-12.85-5.41c-2.16 0-2.817 1.977-3.382 4.734v9.13h-5.41v-18.6h4.733l.35 3.6c.797-2.515 2.694-3.937 4.72-3.937.665 0 1.127.166 1.692.338l-1.014 5.073c-.564-.137-1.092-.337-1.69-.337zm-14.142 9.93c.598 0 1.196-.172 1.894-.62l1.76 3.48c-1.328.965-3.134 1.41-4.73 1.41-3.887-.034-5.748-2.115-5.748-6.424v-8.454h-2.705v-4.058h2.705v-3.72l5.072-.676v4.396h4.396l-1.014 4.058h-3.382v8.454c0 1.76.655 2.154 1.752 2.154zm-15.554-7.55c3.49 1.035 5.45 2.552 5.45 5.827 0 3.792-3.493 5.996-7.88 5.996-3.057 0-5.612-1.068-7.34-2.688l2.56-2.965c1.328 1.07 2.957 1.793 4.685 1.793 1.595 0 2.56-.62 2.56-1.724 0-1.24-.533-1.62-3.723-2.55-3.49-1.035-5.217-2.896-5.217-5.723 0-3.137 2.7-5.42 7.152-5.42 2.558 0 4.91.698 6.537 2.076l-1.927 3.067c-1.362-.896-2.825-1.414-4.353-1.414-1.43 0-2.127.552-2.127 1.38 0 .965.466 1.38 3.622 2.344z" fill="#FF6860"/><path d="M185.217 183.237c-2.455 0-3.72-1.688-3.72-4.396 0-2.56 1.25-4.057 3.72-4.057 2.455 0 3.72 1.35 3.72 4.058 0 2.56-1.25 4.397-3.72 4.397zm0-6.763c-.848 0-1.353.76-1.353 2.367 0 1.668.505 2.368 1.353 2.368s1.353-.76 1.353-2.367c0-1.65-.505-2.366-1.353-2.366zm-8.116-1.69h2.706v8.453H177.1v-8.454zm1.354-1.354c-.893 0-1.353-.534-1.353-1.353 0-.818.46-1.353 1.354-1.353.893 0 1.353.534 1.353 1.353 0 .82-.46 1.353-1.353 1.353zm-4.396 9.807c-.893 0-1.353-.534-1.353-1.353 0-.818.46-1.353 1.353-1.353s1.353.535 1.353 1.354c0 .818-.46 1.353-1.352 1.353z" fill="#39393B"/><path d="M150.386 139.952s-16.09-4.77-19.41-4.77c3.31-1.632 5.324-9.592 4.892-13.048-1.63-13.047-12.873-14.646-12.873-14.646s-3.416.06-5.072 1.69c1.605 3.263 1.68 6.658 1.68 9.895 0 4.893-1.8 9.527-5.062 12.763 1.683-3.236 1.68-6.08 1.68-9.72 0-9.902-6.826-17.923-16.232-17.923-9.406 0-16.232 8.36-16.232 18.26 0 3.642.072 6.146 1.702 9.383-3.313-3.262-5.084-7.87-5.084-12.763 0-3.236.046-6.632 1.702-9.894-1.63-1.632-5.072-1.692-5.072-1.692s-11.215 1.7-12.897 14.646c-.45 3.455 1.63 11.464 4.893 13.047-3.262 0-19.387 4.772-19.387 4.772h100.773z" fill="#CCCBCB"/><path d="M96.105 13.14L83.69 76.938l9.787-7.41-8.155 32.746 6.524-11.32 3.262-21.133L100 96.003l4.893-26.077 3.262 21.21 6.524 11.422-8.156-33.197 9.786 7.577-12.415-63.795c-.368-1.827-1.973-3.14-3.837-3.14h-.115c-1.864-.002-3.47 1.312-3.838 3.14zM102.59 52H97.74c-.46 0-.744-.365-.633-.81l2.426-9.706c.35-1.392.92-1.392 1.267 0l2.426 9.705c.113.445-.172.81-.632.81z" fill="#FF6860"/></symbol></svg>